<?xml version="1.0" encoding="iso-8859-1"?>
<!-- Generator: Adobe Illustrator 19.0.0, SVG Export Plug-In . SVG Version: 6.00 Build 0)  -->
<svg version="1.1" id="Layer_1" xmlns="http://www.w3.org/2000/svg" xmlns:xlink="http://www.w3.org/1999/xlink" x="0px" y="0px"
	 viewBox="0 0 344.116 344.116" style="enable-background:new 0 0 344.116 344.116;" xml:space="preserve">
<g>
	<g>
		<g>
			<path d="M115.585,268.532c-37.756-0.22-75.516-0.436-113.272-0.656c-3.08-0.02-3.088,4.772,0,4.792
				c37.756,0.22,75.516,0.436,113.272,0.656C118.669,273.34,118.673,268.548,115.585,268.532z"/>
			<path d="M164.129,273.604c3.084,0.02,3.088-4.772,0-4.792c-12.944-0.076-25.888-0.152-38.836-0.228
				c-3.08-0.016-3.088,4.776,0,4.792C138.241,273.456,151.185,273.528,164.129,273.604z"/>
			<path d="M118.341,237.74c-16.656-0.096-33.312-0.192-49.968-0.292c-3.08-0.016-3.088,4.776,0,4.792
				c16.656,0.096,33.312,0.192,49.968,0.288C121.425,242.552,121.429,237.76,118.341,237.74z"/>
			<path d="M128.861,242.336c6.136,0.036,12.272,0.072,18.408,0.108c3.084,0.02,3.088-4.772,0-4.792
				c-6.136-0.036-12.272-0.072-18.408-0.108C125.773,237.524,125.773,242.316,128.861,242.336z"/>
			<path d="M22.121,242.428c12.244,0.236,24.484,0.156,36.724-0.236c3.076-0.1,3.088-4.888,0-4.792
				c-12.24,0.392-24.48,0.468-36.724,0.236C19.037,237.58,19.037,242.372,22.121,242.428z"/>
			<path d="M76.033,213.896c-3.08,0.052-3.088,4.844,0,4.792c7.972-0.136,15.94-0.268,23.908-0.404c3.08-0.052,3.088-4.844,0-4.792
				C91.973,213.624,84.005,213.76,76.033,213.896z"/>
			<path d="M107.913,218.664c7.084-0.12,14.168-0.24,21.252-0.36c3.08-0.052,3.088-4.844,0-4.792
				c-7.084,0.124-14.168,0.244-21.252,0.36C104.833,213.924,104.821,218.716,107.913,218.664z"/>
			<path d="M37.361,218.616c8.856-0.088,17.712-0.176,26.568-0.264c3.08-0.032,3.088-4.824,0-4.792
				c-3.884,0.036-7.772,0.076-11.656,0.116c1.496-10.836,7.432-20.488,16.552-26.624c0.936-0.632,1.496-1.684,1.5-2.812
				c0.032-31.868,25.984-57.916,57.848-58.064h0.292c22.328,0,42.3,12.488,52.168,32.64c0.432,0.888,1.24,1.548,2.2,1.796
				c0.956,0.24,1.984,0.068,2.796-0.504c2.556-1.784,5.356-3.156,8.324-4.08c15.812-4.872,32.628,3.988,37.512,19.78
				c0.368,1.18,0.66,2.476,0.924,4.08c0.22,1.348,1.22,2.428,2.548,2.752c13.288,3.232,23.628,12.92,27.652,25.924
				c0.444,1.428,0.792,2.864,1.064,4.292c0.088,0.464,0.268,0.888,0.52,1.256c-20.32-0.176-40.64-0.352-60.956-0.528
				c-3.084-0.028-3.088,4.764,0,4.792c25.972,0.228,51.94,0.448,77.912,0.676c3.084,0.028,3.084-4.768,0-4.792
				c-3.788-0.032-7.576-0.064-11.364-0.1c0.504-0.72,0.736-1.636,0.556-2.568c-0.316-1.68-0.736-3.36-1.252-5.036
				c-4.52-14.596-15.788-25.648-30.392-29.936c-0.216-1.008-0.452-1.932-0.728-2.82c-0.164-0.524-0.376-1.024-0.56-1.54
				c6.996-12.848,21.592-21.188,37.404-21.26h0.22c22.888,0,41.656,16.76,41.88,37.448c0.016,1.18,0.64,2.272,1.652,2.876
				c10.036,6.016,14.476,17.048,11.056,27.448c-2.148,6.516-7.056,11.82-13.888,14.968c-0.068,0.028-6.888,3.232-14.952,2.62
				c-0.048,0-4.528,0.164-23.472,0.464c-1.872,0.032-3.368,1.58-3.34,3.452c0.036,1.852,1.544,3.34,3.4,3.34h0.056
				c18.364-0.296,23.216-0.46,23.24-0.48c9.596,0.728,17.708-3.128,17.98-3.26c8.496-3.912,14.684-10.652,17.428-18.98
				c4.184-12.708-0.916-26.584-12.424-34.384c-1.324-23.536-22.692-42.308-48.608-42.308h-0.256
				c-16.868,0.08-32.032,7.976-40.868,20.852c-3.396-5.4-8.132-9.856-13.928-12.912c-8.692-4.584-18.636-5.512-28.028-2.6
				c-2.412,0.748-4.744,1.74-6.952,2.964c-11.52-20.548-32.828-33.128-56.528-33.128h-0.32c-34.992,0.164-63.6,28.296-64.584,63.072
				c-10.176,7.444-16.708,18.724-18.16,31.292c-2.684,0.028-5.364,0.052-8.044,0.08C34.277,213.856,34.269,218.648,37.361,218.616z"
				/>
			<path d="M254.637,291.8c-42.72-0.184-85.444-0.364-128.164-0.552c-3.08-0.012-3.088,4.78,0,4.792
				c42.724,0.184,85.444,0.368,128.168,0.552C257.721,296.604,257.725,291.816,254.637,291.8z"/>
			<path d="M115.725,291.58c-4.896-0.036-9.784-0.072-14.68-0.108c-3.08-0.02-3.088,4.768,0,4.792
				c4.896,0.036,9.784,0.072,14.68,0.108C118.809,296.392,118.813,291.6,115.725,291.58z"/>
			<path d="M189.273,214.324c-15.056-0.108-30.112-0.22-45.168-0.328c-3.08-0.024-3.088,4.768,0,4.792
				c15.056,0.108,30.112,0.22,45.168,0.328C192.357,219.14,192.361,214.348,189.273,214.324z"/>
			<path d="M303.977,184.892c2.94-9.46-2.676-19.816-12.132-22.636c-2.96-0.884-4.228,3.736-1.276,4.62
				c7.024,2.096,10.94,9.808,8.784,16.744C298.441,186.568,303.065,187.832,303.977,184.892z"/>
			<path d="M109.553,142.18c-15.664,7.512-28.132,20.32-29.352,38.348c-0.212,3.076,4.584,3.064,4.792,0
				c1.108-16.344,12.96-27.492,26.98-34.212C114.753,144.988,112.325,140.852,109.553,142.18z"/>
			<path d="M122.105,143.936c3.896-2.4,8.472-2.604,12.512-0.408c2.708,1.472,5.132-2.66,2.42-4.14
				c-5.508-2.992-11.992-2.892-17.348,0.408C117.065,141.412,119.469,145.56,122.105,143.936z"/>
			<path d="M305.781,257.2c-20.74-0.14-41.48-0.276-62.22-0.412c-3.08-0.02-3.088,4.772,0,4.792c20.74,0.14,41.48,0.276,62.22,0.412
				C308.865,262.012,308.869,257.22,305.781,257.2z"/>
			<path d="M341.801,257.436c-7.64-0.052-15.28-0.1-22.92-0.152c-3.084-0.02-3.088,4.768,0,4.792c7.64,0.052,15.28,0.1,22.92,0.152
				C344.885,262.248,344.889,257.46,341.801,257.436z"/>
			<path d="M185.969,262.212c15.248,0.308,30.484,0.22,45.728-0.252c3.076-0.096,3.088-4.888,0-4.792
				c-15.244,0.472-30.484,0.56-45.728,0.252C182.885,257.36,182.885,262.148,185.969,262.212z"/>
			<path d="M231.033,242.408c3.08-0.052,3.088-4.844,0-4.792c-7.972,0.136-15.94,0.268-23.908,0.404
				c-3.08,0.052-3.088,4.844,0,4.792C215.097,242.68,223.065,242.544,231.033,242.408z"/>
			<path d="M239.005,238c-3.08,0.052-3.088,4.844,0,4.792c7.084-0.12,14.168-0.24,21.252-0.36c3.08-0.052,3.088-4.844,0-4.792
				C253.173,237.764,246.089,237.88,239.005,238z"/>
			<path d="M168.453,242.744c8.856-0.088,17.712-0.176,26.568-0.264c3.08-0.032,3.088-4.824,0-4.792
				c-8.856,0.088-17.712,0.176-26.568,0.264C165.369,237.984,165.361,242.776,168.453,242.744z"/>
			<path d="M158.653,125.912c1.792,0.532,3.684-0.512,4.204-2.316c9.376-32.352,38.464-43.588,63.064-40.404
				c25.148,3.272,50.88,21.872,51.68,56.056c0.044,1.848,1.556,3.316,3.392,3.316c0.02,0,0.052,0,0.076-0.004
				c1.876-0.044,3.36-1.596,3.312-3.472c-0.888-38.204-29.564-58.984-57.588-62.632c-27.48-3.584-59.964,9.02-70.46,45.248
				C155.813,123.508,156.849,125.388,158.653,125.912z"/>
			<path d="M140.569,84.856l12.012,8.312c0.416,0.292,0.888,0.424,1.364,0.424c0.756,0,1.508-0.36,1.968-1.036
				c0.752-1.084,0.48-2.576-0.608-3.328l-12.012-8.312c-1.092-0.764-2.584-0.488-3.332,0.608
				C139.209,82.608,139.481,84.104,140.569,84.856z"/>
			<path d="M259.681,73.688c0.42,0.288,0.892,0.424,1.364,0.424c0.76,0,1.508-0.36,1.968-1.036l7.06-10.192
				c0.752-1.092,0.48-2.584-0.604-3.336c-1.084-0.744-2.58-0.48-3.336,0.604l-7.06,10.204
				C258.321,71.44,258.593,72.936,259.681,73.688z"/>
			<path d="M292.221,128.776c0.124,0,0.248-0.012,0.376-0.028l11.196-1.744c1.304-0.208,2.2-1.428,1.996-2.74
				c-0.2-1.304-1.428-2.168-2.736-1.996l-11.196,1.744c-1.308,0.208-2.204,1.432-2,2.74
				C290.045,127.932,291.065,128.776,292.221,128.776z"/>
			<path d="M197.157,62.536c0.184,1.184,1.204,2.024,2.364,2.024c0.124,0,0.248-0.012,0.376-0.028
				c1.304-0.204,2.2-1.428,1.996-2.736l-1.908-12.252c-0.204-1.308-1.436-2.168-2.736-2c-1.308,0.208-2.2,1.428-2,2.74
				L197.157,62.536z"/>
			<path d="M246.725,99.184c-2.86-1.144-4.108,3.488-1.276,4.62c4.612,1.844,8.456,5.18,11.408,9.132
				c1.824,2.44,5.984,0.056,4.136-2.42C257.225,105.468,252.613,101.536,246.725,99.184z"/>
		</g>
	</g>
</g>
<g>
</g>
<g>
</g>
<g>
</g>
<g>
</g>
<g>
</g>
<g>
</g>
<g>
</g>
<g>
</g>
<g>
</g>
<g>
</g>
<g>
</g>
<g>
</g>
<g>
</g>
<g>
</g>
<g>
</g>
</svg>
