<?xml version="1.0" encoding="iso-8859-1"?>
<!-- Generator: Adobe Illustrator 18.1.1, SVG Export Plug-In . SVG Version: 6.00 Build 0)  -->
<svg version="1.1" id="Capa_1" xmlns="http://www.w3.org/2000/svg" xmlns:xlink="http://www.w3.org/1999/xlink" x="0px" y="0px"
	 viewBox="0 0 206.611 206.611" style="enable-background:new 0 0 206.611 206.611;" xml:space="preserve">
<g>
	<g>
		<path style="fill:#010002;" d="M201.21,52.308c0-16.413-14.788-29.543-31.626-26.616c-5.991-9.699-17.819-14.816-29.171-12.118
			C135.595,5.161,126.749,0,117.003,0c-9.556,0-17.901,5.028-22.704,12.576c-5.891-3.829-12.816-6.023-20.153-6.023
			c-19.949,0-36.272,15.822-37.059,35.763C18.914,44.958,5.4,60.475,5.4,79.021c0,20.457,16.645,37.102,37.102,37.102h51.292
			L66.61,148.59c-0.254,0.304-0.311,0.727-0.147,1.092c0.168,0.361,0.533,0.591,0.931,0.591h21.058L53.25,200.931
			c-0.308,0.44-0.222,1.041,0.197,1.378c0.19,0.15,0.415,0.229,0.644,0.229c0.276,0,0.548-0.107,0.748-0.329l58.879-63.135
			c0.276-0.293,0.358-0.734,0.193-1.106c-0.165-0.376-0.53-0.616-0.938-0.616h-11.485l18.8-21.237h20.89
			c-1.109,1.646-6.378,9.695-6.378,13.378c0,4.277,3.482,7.766,7.766,7.766c4.277,0,7.763-3.489,7.763-7.766
			c0-3.683-5.275-11.731-6.378-13.378h10.189c20.453,0,37.102-16.645,37.102-37.102c0-1.868-0.19-3.69-0.458-5.49
			C197.105,68.592,201.21,60.941,201.21,52.308z M142.564,133.985c-2.477,0-4.495-2.011-4.495-4.484
			c0-1.643,2.312-5.973,4.495-9.473c2.165,3.504,4.484,7.831,4.484,9.473C147.048,131.977,145.037,133.985,142.564,133.985z
			 M98.443,137.7c-0.272,0.304-0.336,0.727-0.168,1.099c0.165,0.369,0.526,0.608,0.934,0.608h11.402L63.084,190.37l28.169-40.538
			c0.222-0.311,0.243-0.719,0.068-1.066c-0.175-0.336-0.526-0.54-0.909-0.54H69.591l26.881-32.102h21.083L98.443,137.7z
			 M154.134,112.655H42.502c-18.549,0-33.634-15.092-33.634-33.634c0-17.279,12.941-31.662,30.102-33.448l1.542-0.361v-1.56
			c0-18.546,15.092-33.638,33.634-33.638c12.716,0,24.2,7.068,29.976,18.438l0.651,1.278l1.374-0.401
			c3.092-0.895,6.245-1.349,9.369-1.349c12.218,0,23.495,6.653,29.432,17.365l0.626,1.134l1.263-0.283
			c21.57-4.756,40.931,11.889,40.931,32.822C187.772,97.563,172.683,112.655,154.134,112.655z M189.994,69.702
			c-4.713-18.045-22.69-30.868-42.649-27.138c-6.692-11.166-18.768-18.048-31.823-18.048c-2.996,0-6.005,0.376-8.969,1.117
			c-2.434-4.377-5.662-8.113-9.43-11.109c4.173-6.617,11.495-11.059,19.881-11.059c8.904,0,16.946,4.95,20.994,12.916l0.648,1.278
			l1.378-0.401c10.629-3.085,21.96,1.793,27.174,11.216l0.626,1.127l1.263-0.279c15.164-3.318,28.663,8.332,28.663,22.983
			C197.746,59.212,194.743,65.396,189.994,69.702z"/>
		<path style="fill:#010002;" d="M60.483,138.884c0-3.769-5.451-12.079-6.549-13.707l-1.36-2.026l-1.36,2.026
			c-1.092,1.628-6.553,9.938-6.553,13.707c0,4.366,3.55,7.913,7.909,7.913C56.936,146.797,60.483,143.251,60.483,138.884z
			 M52.57,143.512c-2.552,0-4.627-2.072-4.627-4.627c0-1.689,2.394-6.174,4.627-9.767c2.237,3.597,4.635,8.081,4.635,9.767
			C57.208,141.44,55.125,143.512,52.57,143.512z"/>
		<path style="fill:#010002;" d="M115.45,154.732c-0.175,0-0.344,0.079-0.458,0.218l-16.964,20.267
			c-0.15,0.175-0.183,0.422-0.086,0.63c0.1,0.222,0.311,0.354,0.544,0.354h12.25l-20.482,29.475
			c-0.179,0.251-0.129,0.608,0.115,0.802c0.111,0.086,0.243,0.132,0.376,0.132c0.157,0,0.319-0.064,0.433-0.193l34.264-36.733
			c0.157-0.172,0.204-0.426,0.107-0.644c-0.093-0.225-0.311-0.361-0.548-0.361h-6.682l11.474-12.955
			c0.154-0.175,0.197-0.422,0.097-0.641c-0.093-0.218-0.311-0.354-0.544-0.354H115.45V154.732z M116.545,168.882
			c-0.157,0.172-0.197,0.422-0.097,0.641c0.097,0.215,0.308,0.351,0.54,0.351h6.635L95.97,199.525l16.391-23.581
			c0.125-0.186,0.143-0.426,0.043-0.626c-0.107-0.193-0.308-0.311-0.53-0.311H99.76l15.972-19.079h12.29L116.545,168.882z"/>
	</g>
</g>
<g>
</g>
<g>
</g>
<g>
</g>
<g>
</g>
<g>
</g>
<g>
</g>
<g>
</g>
<g>
</g>
<g>
</g>
<g>
</g>
<g>
</g>
<g>
</g>
<g>
</g>
<g>
</g>
<g>
</g>
</svg>
